<?xml version="1.0" encoding="UTF-8"?>
<svg xmlns="http://www.w3.org/2000/svg" xmlns:xlink="http://www.w3.org/1999/xlink" width="1051.67pt" height="255.12pt" viewBox="0 0 1051.67 255.12" version="1.1">
<defs>
<clipPath id="clip1">
  <path d="M 928 66 L 1051.671875 66 L 1051.671875 193 L 928 193 Z M 928 66 "/>
</clipPath>
<clipPath id="clip2">
  <path d="M 359 206 L 403 206 L 403 255.121094 L 359 255.121094 Z M 359 206 "/>
</clipPath>
<clipPath id="clip3">
  <path d="M 738 206 L 768 206 L 768 255.121094 L 738 255.121094 Z M 738 206 "/>
</clipPath>
</defs>
<g id="surface1">
<path style=" stroke:none;fill-rule:nonzero;fill:rgb(100%,45.899963%,0%);fill-opacity:1;" d="M 292.164063 187.421875 L 300.515625 186.730469 C 309.566406 185.796875 309.566406 184.640625 309.566406 156.332031 L 309.566406 75.578125 C 309.566406 47.273438 309.566406 46.113281 300.515625 45.183594 L 292.164063 44.484375 L 292.164063 39.390625 L 352.726563 39.390625 C 374.769531 39.390625 409.117188 42.863281 409.117188 81.148438 C 409.117188 112.707031 373.847656 127.328125 352.03125 127.328125 L 348.09375 127.328125 L 348.09375 122.222656 C 358.058594 122.222656 384.753906 117.578125 384.753906 82.542969 C 384.753906 55.390625 366.414063 47.03125 345.539063 47.03125 C 340.664063 47.03125 335.785156 47.96875 331.148438 48.898438 L 331.148438 156.332031 C 331.148438 184.640625 331.148438 185.796875 343.914063 186.730469 L 352.269531 187.421875 L 352.269531 192.539063 L 292.164063 192.539063 "/>
<path style=" stroke:none;fill-rule:nonzero;fill:rgb(100%,45.899963%,0%);fill-opacity:1;" d="M 474.320313 189.175781 C 506.039063 189.175781 517.980469 161.925781 517.980469 134.683594 C 517.980469 99.433594 500.441406 72.742188 471.144531 72.742188 C 443.148438 72.742188 426.742188 96.0625 426.742188 128.347656 C 426.742188 166.410156 446.148438 189.175781 474.320313 189.175781 M 407.144531 131.886719 C 407.144531 91.589844 438.304688 66.585938 474.320313 66.585938 C 508.648438 66.585938 537.578125 88.414063 537.578125 129.832031 C 537.578125 170.890625 507.714844 195.335938 470.777344 195.335938 C 433.832031 195.335938 407.144531 172.191406 407.144531 131.886719 "/>
<path style=" stroke:none;fill-rule:nonzero;fill:rgb(100%,45.899963%,0%);fill-opacity:1;" d="M 594.019531 121.8125 C 608.769531 130.214844 624.070313 138.039063 624.070313 160.429688 C 624.070313 185.617188 600.75 195.335938 580.972656 195.335938 C 566.410156 195.335938 557.449219 191.40625 551.671875 187.867188 C 548.3125 180.589844 545.691406 166.78125 545.691406 155.027344 L 551.671875 153.542969 C 553.71875 166.96875 560.625 189.175781 586.183594 189.175781 C 599.066406 189.175781 608.585938 180.777344 608.585938 166.222656 C 608.585938 152.605469 597.195313 143.273438 582.644531 136.738281 L 570.703125 130.214844 C 560.070313 124.429688 550.171875 112.855469 550.171875 98.867188 C 550.171875 76.09375 569.214844 66.582031 588.996094 66.582031 C 600.5625 66.582031 609.886719 69.566406 614.738281 72.550781 C 616.234375 78.523438 616.601563 93.648438 616.601563 98.300781 L 611.941406 98.300781 C 610.074219 88.96875 607.085938 72.742188 586 72.742188 C 575.179688 72.742188 565.664063 80.582031 565.664063 93.082031 C 565.664063 104.089844 573.6875 110.058594 583.769531 116.023438 "/>
<path style=" stroke:none;fill-rule:nonzero;fill:rgb(100%,45.899963%,0%);fill-opacity:1;" d="M 624.679688 188.417969 L 631.394531 187.863281 C 638.664063 187.117188 638.664063 186.179688 638.664063 163.425781 L 638.664063 98.484375 C 638.664063 75.726563 638.664063 74.792969 631.394531 74.046875 L 624.679688 73.488281 L 624.679688 69.378906 L 670.007813 69.378906 L 670.007813 73.488281 L 663.296875 74.046875 C 656.023438 74.792969 656.023438 75.726563 656.023438 98.484375 L 656.023438 163.425781 C 656.023438 186.179688 656.023438 187.117188 663.296875 187.863281 L 670.007813 188.417969 L 670.007813 192.539063 L 624.679688 192.539063 "/>
<path style=" stroke:none;fill-rule:nonzero;fill:rgb(100%,45.899963%,0%);fill-opacity:1;" d="M 706.914063 188.417969 L 713.816406 187.863281 C 724.074219 187.117188 724.074219 186.179688 724.074219 163.425781 L 724.074219 74.605469 L 714.378906 74.605469 C 688.0625 74.605469 687.691406 77.402344 683.597656 99.050781 L 679.117188 99.050781 C 679.117188 98.300781 678.742188 93.269531 678.742188 90.835938 C 678.742188 82.253906 680.035156 73.488281 680.789063 69.378906 L 784.722656 69.378906 C 785.46875 73.488281 786.785156 82.253906 786.785156 90.835938 C 786.785156 93.269531 786.402344 98.300781 786.402344 99.050781 L 781.925781 99.050781 C 777.816406 77.402344 777.445313 74.605469 751.140625 74.605469 L 741.433594 74.605469 L 741.433594 163.425781 C 741.433594 186.179688 741.433594 187.117188 751.871094 187.863281 L 758.601563 188.417969 L 758.601563 192.539063 L 706.914063 192.539063 "/>
<path style=" stroke:none;fill-rule:nonzero;fill:rgb(100%,45.899963%,0%);fill-opacity:1;" d="M 793.308594 188.417969 L 800.019531 187.863281 C 807.296875 187.117188 807.296875 186.179688 807.296875 163.425781 L 807.296875 98.484375 C 807.296875 75.726563 807.296875 74.792969 800.019531 74.046875 L 793.308594 73.488281 L 793.308594 69.378906 L 838.640625 69.378906 L 838.640625 73.488281 L 831.925781 74.046875 C 824.648438 74.792969 824.648438 75.726563 824.648438 98.484375 L 824.648438 163.425781 C 824.648438 186.179688 824.648438 187.117188 831.925781 187.863281 L 838.640625 188.417969 L 838.640625 192.539063 L 793.308594 192.539063 "/>
<path style=" stroke:none;fill-rule:nonzero;fill:rgb(100%,45.899963%,0%);fill-opacity:1;" d="M 860.472656 88.414063 C 857.675781 81.507813 855.636719 74.605469 849.46875 74.046875 L 844.0625 73.488281 L 844.0625 69.382813 L 890.519531 69.382813 L 890.519531 73.488281 L 884.726563 74.046875 C 881.746094 74.414063 876.335938 74.976563 876.335938 78.714844 C 876.335938 79.648438 877.828125 83.941406 878.769531 86.175781 L 911.042969 169.394531 C 915.339844 158.199219 944.628906 85.617188 944.628906 79.835938 C 944.628906 76.097656 940.898438 75.160156 937.355469 74.605469 L 928.953125 73.488281 L 928.953125 69.382813 L 969.257813 69.382813 L 969.257813 73.488281 L 964.402344 74.605469 C 962.351563 74.976563 960.296875 76.097656 958.808594 77.59375 C 954.703125 81.703125 948.738281 99.609375 944.0625 108.566406 L 931.386719 139.164063 C 920.742188 164.910156 911.421875 187.675781 909.738281 192.539063 C 908.796875 193.28125 905.816406 194.582031 903.394531 195.328125 "/>
<g clip-path="url(#clip1)" clip-rule="nonzero">
<path style=" stroke:none;fill-rule:nonzero;fill:rgb(100%,45.899963%,0%);fill-opacity:1;" d="M 967.519531 137.109375 C 973.121094 136.738281 978.902344 136.179688 984.5 136.179688 C 990.46875 136.179688 996.441406 136.367188 1002.410156 137.109375 L 985.246094 91.957031 Z M 928.339844 188.417969 L 931.882813 187.867188 C 938.96875 186.75 939.910156 184.699219 944.382813 173.871094 L 983.199219 79.457031 C 984.695313 75.730469 986.175781 72 987.675781 68.441406 L 993.089844 66.585938 L 1034.691406 174.617188 C 1037.488281 182.082031 1039.359375 186.375 1044.210938 187.308594 L 1051.671875 188.417969 L 1051.671875 192.539063 L 1005.390625 192.539063 L 1005.390625 188.417969 L 1013.800781 186.929688 C 1017.160156 186.375 1019.578125 185.4375 1019.578125 183.386719 C 1019.578125 182.082031 1018.828125 180.777344 1018.460938 179.472656 L 1005.390625 144.203125 C 998.488281 142.894531 991.589844 142.335938 984.695313 142.335938 C 978.15625 142.335938 971.625 143.082031 965.097656 144.203125 L 955.578125 170.132813 C 953.34375 176.109375 951.851563 181.15625 951.851563 182.640625 C 951.851563 186.183594 954.269531 186.75 956.328125 186.929688 L 967.519531 188.417969 L 967.519531 192.539063 L 928.339844 192.539063 "/>
</g>
<g clip-path="url(#clip2)" clip-rule="nonzero">
<path style=" stroke:none;fill-rule:nonzero;fill:rgb(100%,45.899963%,0%);fill-opacity:1;" d="M 402.820313 240.542969 C 402.398438 244.960938 401.621094 248.246094 399.9375 252.449219 C 397.980469 253.363281 392.300781 255.121094 385.507813 255.121094 C 372.113281 255.121094 359.507813 248.882813 359.507813 231.082031 C 359.507813 212.371094 374.570313 206.757813 385.644531 206.757813 C 392.800781 206.757813 398.125 208.515625 399.9375 209.632813 C 400.578125 212.441406 401.070313 216.503906 401.070313 220.003906 L 399.179688 220.421875 C 398.472656 217.625 397.558594 209.070313 385.570313 209.070313 C 374.089844 209.070313 366.867188 216.640625 366.867188 229.746094 C 366.867188 241.726563 372.609375 252.804688 385.367188 252.804688 C 397 252.804688 398.757813 245.722656 400.925781 240.117188 "/>
</g>
<path style=" stroke:none;fill-rule:nonzero;fill:rgb(100%,45.899963%,0%);fill-opacity:1;" d="M 425.390625 253.054688 C 434.976563 253.054688 438.582031 244.824219 438.582031 236.601563 C 438.582031 225.945313 433.289063 217.882813 424.433594 217.882813 C 415.980469 217.882813 411.027344 224.933594 411.027344 234.675781 C 411.027344 246.179688 416.882813 253.054688 425.390625 253.054688 M 405.109375 235.753906 C 405.109375 223.578125 414.515625 216.027344 425.390625 216.027344 C 435.769531 216.027344 444.5 222.613281 444.5 235.132813 C 444.5 247.53125 435.484375 254.910156 424.328125 254.910156 C 413.164063 254.910156 405.109375 247.929688 405.109375 235.753906 "/>
<path style=" stroke:none;fill-rule:nonzero;fill:rgb(100%,45.899963%,0%);fill-opacity:1;" d="M 447.652344 252.828125 L 449.066406 252.484375 C 449.910156 252.316406 450.464844 252.089844 450.808594 251.8125 C 451.371094 251.246094 451.773438 247.644531 452.105469 242.515625 L 453.011719 228.3125 C 453.226563 224.476563 453.628906 218.394531 453.628906 216.871094 L 455.148438 216.371094 C 456.839844 219.292969 469.691406 243.582031 471.4375 246.679688 C 473.242188 243.804688 485.863281 219.742188 486.929688 216.871094 L 488.398438 216.371094 C 488.398438 216.816406 488.800781 223.128906 489.183594 230.5625 L 489.6875 240.316406 C 489.921875 245.109375 490.3125 250.574219 490.765625 251.414063 C 491.042969 251.976563 491.898438 252.316406 492.902344 252.484375 L 494.605469 252.828125 L 494.605469 254.066406 L 480.167969 254.066406 L 480.167969 252.828125 L 482.371094 252.484375 C 484.792969 252.207031 485.019531 251.308594 485.019531 248.710938 C 485.019531 242.453125 484.054688 230.625 484.054688 227.019531 L 483.949219 227.019531 C 482.988281 229.496094 477.242188 240.542969 471.65625 251.53125 C 471.378906 252.089844 471.152344 252.769531 470.875 253.332031 L 469.292969 254.066406 C 468.054688 251.476563 460.894531 237.722656 457.007813 230.285156 C 456.445313 229.214844 455.933594 228.136719 455.476563 227.019531 L 455.378906 227.019531 C 455.199219 230.230469 454.421875 246.179688 454.421875 247.929688 C 454.421875 251.246094 454.421875 252.207031 457.0625 252.484375 L 459.3125 252.828125 L 459.3125 254.066406 L 447.652344 254.066406 "/>
<path style=" stroke:none;fill-rule:nonzero;fill:rgb(100%,45.899963%,0%);fill-opacity:1;" d="M 497.1875 252.828125 L 499.21875 252.65625 C 501.410156 252.425781 501.410156 252.148438 501.410156 245.273438 L 501.410156 225.660156 C 501.410156 218.792969 501.410156 218.5 499.21875 218.277344 L 497.1875 218.117188 L 497.1875 216.871094 L 511.894531 216.871094 C 517.25 216.871094 525.589844 217.710938 525.589844 227.019531 C 525.589844 234.675781 517.023438 238.230469 511.726563 238.230469 L 510.777344 238.230469 L 510.777344 236.980469 C 513.191406 236.980469 519.683594 235.863281 519.683594 227.363281 C 519.683594 220.761719 515.226563 218.738281 510.152344 218.738281 C 508.96875 218.738281 507.78125 218.949219 506.660156 219.191406 L 506.660156 245.273438 C 506.660156 252.148438 506.660156 252.425781 509.757813 252.65625 L 511.785156 252.828125 L 511.785156 254.066406 L 497.1875 254.066406 "/>
<path style=" stroke:none;fill-rule:nonzero;fill:rgb(100%,45.899963%,0%);fill-opacity:1;" d="M 534.214844 237.332031 C 535.90625 237.222656 537.652344 237.039063 539.34375 237.039063 C 541.148438 237.039063 542.945313 237.101563 544.753906 237.332031 L 539.570313 223.6875 Z M 522.378906 252.828125 L 523.445313 252.65625 C 525.585938 252.320313 525.875 251.710938 527.226563 248.433594 L 538.949219 219.914063 C 539.402344 218.792969 539.851563 217.664063 540.296875 216.589844 L 541.941406 216.027344 L 554.503906 248.652344 C 555.351563 250.90625 555.90625 252.207031 557.371094 252.488281 L 559.628906 252.828125 L 559.628906 254.066406 L 545.660156 254.066406 L 545.660156 252.828125 L 548.1875 252.378906 C 549.207031 252.207031 549.941406 251.925781 549.941406 251.308594 C 549.941406 250.90625 549.710938 250.511719 549.597656 250.117188 L 545.660156 239.464844 C 543.570313 239.070313 541.484375 238.914063 539.402344 238.914063 C 537.421875 238.914063 535.457031 239.132813 533.480469 239.464844 L 530.609375 247.304688 C 529.933594 249.109375 529.476563 250.625 529.476563 251.078125 C 529.476563 252.148438 530.210938 252.320313 530.832031 252.378906 L 534.214844 252.828125 L 534.214844 254.066406 L 522.378906 254.066406 "/>
<path style=" stroke:none;fill-rule:nonzero;fill:rgb(100%,45.899963%,0%);fill-opacity:1;" d="M 571.019531 211.796875 C 571.695313 210.675781 573.714844 207.0625 576.703125 207.0625 C 578.0625 207.0625 579.410156 207.628906 580.765625 208.140625 C 582.175781 208.699219 583.636719 209.265625 585.101563 209.265625 C 586.679688 209.265625 587.746094 207.511719 588.203125 206.898438 L 588.9375 207.570313 C 588.3125 208.921875 586.679688 212.253906 583.578125 212.253906 C 580.871094 212.253906 577.101563 210.058594 575.1875 210.058594 C 573.605469 210.058594 572.367188 211.796875 571.804688 212.535156 Z M 558.617188 252.828125 L 560.640625 252.660156 C 562.835938 252.488281 563.242188 250.742188 563.242188 244.652344 L 563.242188 216.871094 L 564.535156 216.375 C 569.214844 222.335938 585.839844 239.589844 591.976563 245.613281 L 591.976563 226.285156 C 591.976563 220.089844 591.976563 218.5625 588.878906 218.277344 L 586.84375 218.117188 L 586.84375 216.871094 L 599.019531 216.871094 L 599.019531 218.117188 L 596.992188 218.277344 C 594.960938 218.441406 594.566406 220.199219 594.566406 226.285156 L 594.566406 254.066406 L 593.328125 254.574219 C 592.089844 253.269531 588.597656 249.554688 582.734375 243.53125 L 565.824219 225.664063 L 565.824219 244.652344 C 565.824219 250.855469 565.824219 252.375 568.765625 252.660156 L 570.789063 252.828125 L 570.789063 254.066406 L 558.617188 254.066406 "/>
<path style=" stroke:none;fill-rule:nonzero;fill:rgb(100%,45.899963%,0%);fill-opacity:1;" d="M 601.621094 252.828125 L 603.644531 252.65625 C 605.84375 252.425781 605.84375 252.148438 605.84375 245.273438 L 605.84375 225.660156 C 605.84375 218.792969 605.84375 218.5 603.644531 218.277344 L 601.621094 218.117188 L 601.621094 216.871094 L 615.308594 216.871094 L 615.308594 218.117188 L 613.285156 218.277344 C 611.078125 218.5 611.078125 218.792969 611.078125 225.660156 L 611.078125 245.273438 C 611.078125 252.148438 611.078125 252.425781 613.285156 252.65625 L 615.308594 252.828125 L 615.308594 254.066406 L 601.621094 254.066406 "/>
<path style=" stroke:none;fill-rule:nonzero;fill:rgb(100%,45.899963%,0%);fill-opacity:1;" d="M 627.261719 237.332031 C 628.945313 237.222656 630.691406 237.039063 632.378906 237.039063 C 634.183594 237.039063 635.984375 237.101563 637.792969 237.332031 L 632.609375 223.6875 Z M 615.421875 252.828125 L 616.492188 252.65625 C 618.632813 252.320313 618.917969 251.710938 620.269531 248.433594 L 631.996094 219.914063 C 632.4375 218.792969 632.890625 217.664063 633.34375 216.589844 L 634.980469 216.027344 L 647.546875 248.652344 C 648.390625 250.90625 648.953125 252.207031 650.414063 252.488281 L 652.671875 252.828125 L 652.671875 254.066406 L 638.695313 254.066406 L 638.695313 252.828125 L 641.230469 252.378906 C 642.25 252.207031 642.976563 251.925781 642.976563 251.308594 C 642.976563 250.90625 642.753906 250.511719 642.644531 250.117188 L 638.695313 239.464844 C 636.605469 239.070313 634.523438 238.914063 632.4375 238.914063 C 630.46875 238.914063 628.488281 239.132813 626.523438 239.464844 L 623.648438 247.304688 C 622.976563 249.109375 622.519531 250.625 622.519531 251.078125 C 622.519531 252.148438 623.253906 252.320313 623.875 252.378906 L 627.261719 252.828125 L 627.261719 254.066406 L 615.421875 254.066406 "/>
<path style=" stroke:none;fill-rule:nonzero;fill:rgb(100%,45.899963%,0%);fill-opacity:1;" d="M 673.054688 251.867188 C 674.835938 252.191406 676.601563 252.515625 678.378906 252.515625 C 686.882813 252.515625 691.605469 247.808594 691.605469 238.695313 C 691.605469 228.882813 686.277344 224.773438 677.953125 224.773438 C 676.320313 224.773438 674.691406 225.007813 673.054688 225.230469 Z M 665.210938 253.035156 L 666.882813 252.90625 C 668.710938 252.714844 668.710938 252.484375 668.710938 246.78125 L 668.710938 230.519531 C 668.710938 224.820313 668.710938 224.585938 666.882813 224.402344 L 665.210938 224.253906 L 665.210938 223.226563 L 680.53125 223.226563 C 690.527344 223.226563 696.515625 228.460938 696.515625 237.527344 C 696.515625 249.675781 687.492188 254.0625 677.726563 254.0625 L 665.210938 254.0625 "/>
<path style=" stroke:none;fill-rule:nonzero;fill:rgb(100%,45.899963%,0%);fill-opacity:1;" d="M 700.015625 253.035156 L 701.699219 252.902344 C 703.519531 252.714844 703.519531 252.480469 703.519531 246.78125 L 703.519531 230.519531 C 703.519531 224.820313 703.519531 224.582031 701.699219 224.402344 L 700.015625 224.253906 L 700.015625 223.230469 L 720.152344 223.230469 C 720.332031 224.253906 720.660156 226.027344 720.660156 228.179688 C 720.660156 229.25 720.574219 229.628906 720.574219 230.046875 L 719.453125 230.238281 C 718.421875 225.234375 718.324219 224.539063 711.738281 224.539063 L 707.855469 224.539063 L 707.855469 237.390625 L 712.027344 237.390625 C 715.664063 237.390625 716.511719 237.34375 716.785156 235.421875 L 717.019531 233.832031 L 718.230469 233.832031 L 718.230469 242.25 L 717.019531 242.25 L 716.785156 240.652344 C 716.511719 238.738281 715.664063 238.695313 712.027344 238.695313 L 707.855469 238.695313 L 707.855469 252.148438 C 709.546875 252.480469 711.273438 252.753906 712.953125 252.753906 C 720.382813 252.753906 720.851563 249.960938 721.785156 246.125 L 722.953125 246.3125 C 722.816406 249.308594 722.203125 251.496094 721.417969 254.066406 L 700.015625 254.066406 "/>
<g clip-path="url(#clip3)" clip-rule="nonzero">
<path style=" stroke:none;fill-rule:nonzero;fill:rgb(100%,45.899963%,0%);fill-opacity:1;" d="M 756.183594 227.511719 C 761.71875 230.660156 767.464844 233.59375 767.464844 242.015625 C 767.464844 251.472656 758.703125 255.117188 751.277344 255.117188 C 745.8125 255.117188 742.445313 253.644531 740.269531 252.316406 C 739.015625 249.585938 738.03125 244.402344 738.03125 239.976563 L 740.269531 239.414063 C 741.039063 244.464844 743.640625 252.804688 753.242188 252.804688 C 758.070313 252.804688 761.652344 249.652344 761.652344 244.183594 C 761.652344 239.074219 757.375 235.566406 751.902344 233.117188 L 747.421875 230.660156 C 743.425781 228.488281 739.714844 224.144531 739.714844 218.878906 C 739.714844 210.332031 746.867188 206.757813 754.289063 206.757813 C 758.640625 206.757813 762.148438 207.878906 763.964844 209 C 764.527344 211.246094 764.671875 216.921875 764.671875 218.679688 L 762.914063 218.679688 C 762.210938 215.164063 761.09375 209.070313 753.167969 209.070313 C 749.101563 209.070313 745.527344 212.011719 745.527344 216.710938 C 745.527344 220.839844 748.546875 223.085938 752.328125 225.332031 "/>
</g>
<path style=" stroke:none;fill-rule:nonzero;fill:rgb(100%,45.899963%,0%);fill-opacity:1;" d="M 770.894531 252.828125 L 772.921875 252.65625 C 775.113281 252.425781 775.113281 252.148438 775.113281 245.273438 L 775.113281 225.660156 C 775.113281 218.792969 775.113281 218.5 772.921875 218.277344 L 770.894531 218.117188 L 770.894531 216.871094 L 795.175781 216.871094 C 795.402344 218.117188 795.796875 220.25 795.796875 222.847656 C 795.796875 224.144531 795.679688 224.59375 795.679688 225.101563 L 794.328125 225.332031 C 793.09375 219.292969 792.980469 218.445313 785.027344 218.445313 L 780.359375 218.445313 L 780.359375 233.945313 L 785.371094 233.945313 C 789.769531 233.945313 790.78125 233.894531 791.117188 231.578125 L 791.398438 229.667969 L 792.871094 229.667969 L 792.871094 239.808594 L 791.398438 239.808594 L 791.117188 237.894531 C 790.78125 235.585938 789.769531 235.53125 785.371094 235.53125 L 780.359375 235.53125 L 780.359375 251.761719 C 782.382813 252.148438 784.46875 252.484375 786.496094 252.484375 C 795.453125 252.484375 796.023438 249.105469 797.144531 244.488281 L 798.5625 244.707031 C 798.390625 248.324219 797.65625 250.96875 796.703125 254.066406 L 770.894531 254.066406 "/>
<path style=" stroke:none;fill-rule:nonzero;fill:rgb(100%,45.899963%,0%);fill-opacity:1;" d="M 836.878906 252.09375 C 834.960938 252.828125 828.820313 254.914063 822.785156 254.914063 C 811.464844 254.914063 801.320313 249.960938 801.320313 235.585938 C 801.320313 220.542969 813.433594 216.027344 822.339844 216.027344 C 828.085938 216.027344 832.371094 217.429688 833.835938 218.335938 C 834.339844 220.59375 834.734375 223.859375 834.734375 226.679688 L 833.21875 227.015625 C 832.648438 224.757813 831.914063 217.886719 822.277344 217.886719 C 813.039063 217.886719 807.234375 223.976563 807.234375 234.507813 C 807.234375 244.148438 812.136719 253.058594 823.183594 253.058594 C 825.214844 253.058594 827.808594 252.828125 829.777344 252.320313 L 829.777344 250.238281 C 829.777344 243.359375 829.777344 243.085938 825.832031 242.855469 L 823.804688 242.683594 L 823.804688 241.445313 L 838.117188 241.445313 L 838.117188 242.683594 L 836.089844 242.855469 C 835.023438 243.085938 835.023438 243.359375 835.023438 248.824219 C 835.023438 250.511719 835.023438 250.855469 835.914063 250.855469 L 836.484375 250.855469 "/>
<path style=" stroke:none;fill-rule:nonzero;fill:rgb(100%,45.899963%,0%);fill-opacity:1;" d="M 871.53125 252.9375 C 870.746094 252.148438 870.292969 251.355469 869.449219 251.355469 C 868.660156 251.355469 863.988281 254.914063 856.484375 254.914063 C 844.820313 254.914063 843.863281 248.207031 843.863281 240.546875 L 843.863281 225.664063 C 843.863281 218.789063 843.863281 218.503906 841.667969 218.277344 L 839.636719 218.117188 L 839.636719 216.871094 L 853.332031 216.871094 L 853.332031 218.117188 L 851.304688 218.277344 C 849.101563 218.503906 849.101563 218.789063 849.101563 225.664063 L 849.101563 239.640625 C 849.101563 247.695313 850.460938 253.054688 859.199219 253.054688 C 865.0625 253.054688 868.542969 249.558594 869.386719 248.550781 L 869.386719 225.664063 C 869.386719 218.789063 869.386719 218.503906 867.199219 218.277344 L 865.171875 218.117188 L 865.171875 216.871094 L 878.859375 216.871094 L 878.859375 218.117188 L 876.828125 218.277344 C 874.636719 218.503906 874.636719 218.789063 874.636719 225.664063 L 874.636719 254.066406 L 872.945313 254.574219 "/>
<path style=" stroke:none;fill-rule:nonzero;fill:rgb(100%,45.899963%,0%);fill-opacity:1;" d="M 891.199219 236.265625 L 894.414063 236.265625 C 899.148438 236.265625 903.429688 233.71875 903.429688 227.363281 C 903.429688 220.761719 899.09375 218.734375 894.699219 218.734375 C 893.511719 218.734375 892.335938 218.953125 891.199219 219.191406 Z M 881.730469 252.828125 L 883.765625 252.65625 C 885.964844 252.421875 885.964844 252.144531 885.964844 245.273438 L 885.964844 225.664063 C 885.964844 218.792969 885.964844 218.5 883.765625 218.277344 L 881.730469 218.113281 L 881.730469 216.871094 L 896.441406 216.871094 C 901.804688 216.871094 909.351563 217.660156 909.351563 226.230469 C 909.351563 231.464844 904.671875 234.5625 901.570313 236.03125 C 902.417969 237.601563 904.273438 241.214844 905.789063 243.921875 C 908.164063 248.152344 910.640625 251.472656 912.050781 252.265625 C 912.621094 252.605469 913.636719 252.828125 914.875 252.828125 L 914.875 254.066406 L 910.523438 254.066406 C 906.8125 254.066406 904.21875 251.527344 902.527344 248.429688 L 900.28125 244.097656 C 898.808594 241.332031 897.507813 239.183594 896.78125 238.570313 C 895.882813 237.839844 894.46875 237.839844 893.285156 237.839844 L 891.199219 237.839844 L 891.199219 245.273438 C 891.199219 252.144531 891.199219 252.421875 893.34375 252.65625 L 895.375 252.828125 L 895.375 254.066406 L 881.730469 254.066406 "/>
<path style=" stroke:none;fill-rule:nonzero;fill:rgb(100%,45.899963%,0%);fill-opacity:1;" d="M 934.316406 253.054688 C 943.890625 253.054688 947.496094 244.824219 947.496094 236.601563 C 947.496094 225.945313 942.210938 217.882813 933.351563 217.882813 C 924.90625 217.882813 919.941406 224.933594 919.941406 234.675781 C 919.941406 246.179688 925.804688 253.054688 934.316406 253.054688 M 914.027344 235.753906 C 914.027344 223.578125 923.441406 216.027344 934.316406 216.027344 C 944.679688 216.027344 953.421875 222.613281 953.421875 235.132813 C 953.421875 247.53125 944.402344 254.910156 933.238281 254.910156 C 922.085938 254.910156 914.027344 247.929688 914.027344 235.753906 "/>
<path style=" stroke:none;fill-rule:nonzero;fill:rgb(100%,45.899963%,0%);fill-opacity:1;" d="M 971.792969 232.710938 C 976.238281 235.234375 980.859375 237.601563 980.859375 244.382813 C 980.859375 251.972656 973.820313 254.910156 967.847656 254.910156 C 963.453125 254.910156 960.746094 253.726563 958.996094 252.65625 C 957.984375 250.464844 957.191406 246.289063 957.191406 242.738281 L 958.996094 242.289063 C 959.613281 246.347656 961.699219 253.054688 969.429688 253.054688 C 973.3125 253.054688 976.183594 250.511719 976.183594 246.117188 C 976.183594 242.011719 972.742188 239.1875 968.347656 237.226563 L 964.746094 235.234375 C 961.539063 233.5 958.542969 230 958.542969 225.78125 C 958.542969 218.898438 964.296875 216.027344 970.273438 216.027344 C 973.765625 216.027344 976.574219 216.925781 978.054688 217.835938 C 978.5 219.636719 978.613281 224.203125 978.613281 225.613281 L 977.199219 225.613281 C 976.625 222.789063 975.738281 217.882813 969.367188 217.882813 C 966.097656 217.882813 963.226563 220.25 963.226563 224.03125 C 963.226563 227.359375 965.648438 229.152344 968.6875 230.964844 "/>
<path style=" stroke:none;fill-rule:nonzero;fill:rgb(100%,45.899963%,0%);fill-opacity:1;" d="M 144.519531 241.421875 C 71.195313 252.679688 33.902344 197.582031 33.902344 197.582031 C 50.730469 213.878906 79.34375 240.34375 122.75 220.300781 C 185.777344 192.101563 167.1875 129.136719 149.96875 110.6875 C 147.894531 108.476563 149.226563 106.636719 150.710938 105.964844 C 155.648438 103.695313 168.820313 98.691406 179.183594 95.898438 C 180.363281 95.53125 180.589844 94.9375 179.996094 93.460938 C 179.105469 90.875 178.074219 86.960938 172.890625 78.597656 C 171.269531 76.824219 172.003906 75.785156 173.78125 75.347656 C 176.074219 74.859375 177.957031 73.976563 191.085938 72.535156 C 192.496094 72.308594 194.042969 72.863281 194.636719 74.015625 C 197.441406 79.003906 199.472656 84.066406 201.46875 90.546875 C 201.660156 91.195313 202.683594 92.519531 203.804688 92.5625 C 208.621094 92.761719 226.007813 92.855469 235.136719 94.695313 C 235.867188 94.851563 237.460938 95.722656 237.816406 96.785156 C 240.257813 104.074219 245.636719 139.324219 230.132813 176.523438 C 212.386719 219.117188 177.960938 236.292969 144.519531 241.421875 M 42.597656 75.394531 C 44.339844 71.945313 48.460938 64.242188 52.160156 59.601563 C 53.042969 58.496094 53.820313 58.050781 55.800781 58.386719 C 59.386719 58.988281 65.695313 61.644531 73.933594 63.949219 C 75.457031 64.382813 76.34375 64.382813 77.652344 62.90625 C 81.015625 59.132813 90.476563 50.402344 105.882813 44.015625 C 107.625 43.296875 109.929688 43.265625 112.058594 44.304688 C 113.917969 45.214844 115.96875 46.085938 118.375 47.324219 C 111.0625 50.621094 107.269531 53.578125 104.296875 56.289063 C 101.757813 58.613281 101.210938 61.078125 101.210938 62.78125 C 101.210938 63.191406 101.242188 63.546875 101.285156 63.851563 C 101.6875 66.71875 103.554688 69.046875 106.808594 70.789063 L 107.242188 71.027344 C 107.09375 70.953125 106.953125 70.867188 106.808594 70.789063 C 109.152344 72.191406 110.820313 73.304688 112.433594 74.5 C 104.109375 81.757813 98.753906 88.78125 95.3125 93.691406 C 92.738281 96.941406 92.5625 99.859375 92.886719 101.761719 C 93.210938 103.65625 94.3125 106.332031 97.730469 108.367188 L 101.234375 110.449219 C 107.058594 113.878906 112.566406 117.128906 117.398438 121.109375 C 136.171875 136.589844 148.035156 164.96875 134.371094 189.257813 C 125.191406 205.574219 111.910156 213.964844 91.304688 216.46875 C 83.785156 217.390625 76.652344 216.726563 70.015625 215.042969 C 72.730469 215.386719 75.5625 215.558594 78.488281 215.511719 C 93.984375 215.25 110.253906 209.898438 118.71875 196.578125 C 139.902344 163.257813 115.554688 128.796875 82.632813 117.890625 C 75.152344 115.402344 62.933594 112.738281 53.269531 111.523438 C 49.714844 111.078125 48.832031 109.972656 49.9375 107.535156 C 51.886719 103.238281 55.75 94.949219 62.730469 84.367188 C 63.039063 83.902344 62.890625 82.734375 61.546875 82.355469 C 57.972656 81.347656 50.59375 79.359375 44.613281 78.453125 C 42.503906 78.136719 41.714844 77.136719 42.597656 75.394531 M 125.296875 52.796875 C 129.296875 55.621094 132.835938 59.078125 137.230469 63.160156 C 138.050781 63.894531 138.832031 64.785156 141.71875 63.78125 C 147.667969 62.027344 161.3125 55.316406 171.078125 54.425781 C 175.515625 53.832031 176.695313 54.425781 179.355469 56.792969 C 184.46875 61.140625 188.285156 64.367188 191.417969 67.816406 C 181.332031 68.964844 178.097656 69.773438 175.925781 70.320313 L 174.871094 70.570313 L 174.671875 70.625 C 170.105469 71.769531 168.6875 74.933594 168.296875 76.234375 C 168.132813 76.800781 167.980469 77.558594 167.980469 78.445313 C 167.980469 79.902344 168.453125 81.726563 169.890625 83.636719 C 172.433594 87.734375 173.832031 90.574219 174.730469 92.726563 C 165.308594 95.621094 154.984375 99.566406 150.472656 101.632813 C 147.652344 102.921875 145.621094 105.410156 145.050781 108.296875 C 144.964844 108.753906 144.890625 109.335938 144.890625 110.003906 C 144.890625 111.816406 145.4375 114.269531 147.699219 116.683594 C 154.660156 124.140625 162.539063 141.121094 162.539063 159.757813 C 162.539063 163.8125 162.164063 167.933594 161.328125 172.070313 C 157.414063 191.429688 144.375 206.195313 122.574219 215.949219 C 111.265625 221.007813 99.722656 222.0625 88.058594 221.675781 C 88.710938 221.617188 89.363281 221.554688 90.015625 221.472656 C 111.910156 218.808594 127.292969 211.214844 137.9375 192.28125 C 152.628906 166.167969 141.484375 134.128906 119.4375 115.945313 C 113.175781 110.796875 105.945313 106.820313 98.972656 102.65625 C 97.222656 101.609375 96.226563 100.058594 98.449219 97.390625 C 102.046875 92.257813 108.066406 84.304688 118.117188 76.3125 C 120.195313 74.835938 119.3125 73.664063 118.421875 72.472656 C 114.871094 69.515625 112.503906 67.734375 108.066406 65.070313 C 105.695313 63.894531 104.734375 62.628906 106.582031 60.933594 C 108.789063 58.921875 112.246094 55.90625 120.640625 52.351563 C 122.410156 51.242188 124.265625 51.933594 125.296875 52.796875 M 127.054688 0.00390625 C 56.886719 0.00390625 0 56.878906 0 127.050781 C 0 197.21875 56.886719 254.105469 127.054688 254.105469 C 197.21875 254.105469 254.105469 197.21875 254.105469 127.050781 C 254.105469 56.878906 197.21875 0.00390625 127.054688 0.00390625 "/>
</g>
</svg>
